<svg width="30" height="30" viewBox="0 0 30 30" fill="none" xmlns="http://www.w3.org/2000/svg">
<path d="M21 15C21 15.191 20.9241 15.3741 20.7891 15.5091C20.6541 15.6441 20.471 15.72 20.28 15.72H15.72V20.28C15.72 20.471 15.6441 20.6541 15.5091 20.7891C15.3741 20.9241 15.191 21 15 21C14.809 21 14.6259 20.9241 14.4909 20.7891C14.3559 20.6541 14.28 20.471 14.28 20.28V15.72H9.72C9.52904 15.72 9.34591 15.6441 9.21088 15.5091C9.07586 15.3741 9 15.191 9 15C9 14.809 9.07586 14.6259 9.21088 14.4909C9.34591 14.3559 9.52904 14.28 9.72 14.28H14.28V9.72C14.28 9.52904 14.3559 9.34591 14.4909 9.21088C14.6259 9.07586 14.809 9 15 9C15.191 9 15.3741 9.07586 15.5091 9.21088C15.6441 9.34591 15.72 9.52904 15.72 9.72V14.28H20.28C20.471 14.28 20.6541 14.3559 20.7891 14.4909C20.9241 14.6259 21 14.809 21 15Z" fill="#51657B"/>
<circle cx="15" cy="15" r="14.5" stroke="#878686" stroke-opacity="0.5"/>
</svg>
